<svg width="32" height="32" viewBox="0 0 32 32" fill="none" xmlns="http://www.w3.org/2000/svg">
<path d="M28.9906 22.4701C28.9906 26.1816 25.9812 29.0909 22.37 29.0909H9.63005C5.91847 29.0909 3.00939 26.0813 3.00939 22.4701V9.73035C3.00939 6.01875 6.01877 3.10981 9.63005 3.10981H22.37C26.0815 3.10981 28.9906 6.11905 28.9906 9.73035C28.9906 9.63003 28.9906 22.4701 28.9906 22.4701ZM32 9.63017C32 4.31358 27.6866 0 22.37 0H9.63005C4.31345 0 0 4.31358 0 9.63017V22.3699C0 27.6866 4.31345 31.9998 9.63005 31.9998H22.37C27.6866 31.9998 32 27.6866 32 22.3699V9.63017ZM16.0502 21.3668C13.2414 21.3668 10.9342 19.0594 10.9342 16.2508C10.9342 13.4419 13.2414 11.1349 16.0502 11.1349C18.8589 11.1349 21.1661 13.4419 21.1661 16.2508C21.0658 19.0594 18.7586 21.3668 16.0502 21.3668ZM16.0502 8.32605C11.6363 8.32605 8.12535 11.8369 8.12535 16.2508C8.12535 20.6645 11.6363 24.1755 16.0502 24.1755C20.4639 24.1755 23.9749 20.6645 23.9749 16.2508C23.8746 11.8369 20.3636 8.32605 16.0502 8.32605ZM24.3762 5.91838C23.373 5.91838 22.4701 6.72104 22.4701 7.82449C22.4701 8.82762 23.2727 9.73035 24.3762 9.73035C25.3792 9.73035 26.2821 8.92794 26.2821 7.82449C26.2821 6.72104 25.4796 5.91838 24.3762 5.91838Z" fill="#AEAEAE"/>
</svg>
