<svg width="32" height="32" viewBox="0 0 32 32" fill="none" xmlns="http://www.w3.org/2000/svg">
<path d="M32 31.9741V20.2456C32 14.5083 30.765 10.0899 24.0584 10.0899C22.8001 10.0448 21.5532 10.3417 20.4504 10.9491C19.3475 11.5565 18.43 12.4516 17.7955 13.5391H17.7016V10.6254H11.3427V31.9721H17.9593V21.4027C17.9593 18.6189 18.4869 15.9291 21.9341 15.9291C25.3314 15.9291 25.3813 19.1045 25.3813 21.5825V31.9741H32Z" fill="#AEAEAE"/>
<path d="M0.569458 10.6274H7.19009V31.9741H0.569458V10.6274Z" fill="#AEAEAE"/>
<path d="M3.87282 3.29757e-05C3.10856 -0.00312666 2.3606 0.220841 1.72385 0.64351C1.08711 1.06618 0.590291 1.66849 0.296454 2.37401C0.00261723 3.07953 -0.0749904 3.85644 0.073481 4.60614C0.221952 5.35584 0.589809 6.04453 1.13036 6.5848C1.67092 7.12507 2.3598 7.49257 3.10958 7.64065C3.85935 7.78873 4.63622 7.71072 5.34159 7.41652C6.04695 7.12231 6.64901 6.62518 7.07134 5.98822C7.49368 5.35125 7.71726 4.60317 7.7137 3.83892C7.71317 2.8206 7.30828 1.84417 6.58803 1.1243C5.86778 0.404422 4.89114 3.28379e-05 3.87282 3.29757e-05V3.29757e-05Z" fill="#AEAEAE"/>
</svg>
