<svg width="32" height="33" viewBox="0 0 32 33" fill="none" xmlns="http://www.w3.org/2000/svg">
<path d="M32 16.0099C32 24.6099 25 31.6099 16.3 31.6099C13.5 31.6099 11 30.9099 8.7 29.7099L0 32.4099L2.8 24.0099C1.4 21.7099 0.5 18.9099 0.5 16.0099C0.6 7.40991 7.6 0.409912 16.3 0.409912C25 0.409912 32 7.40991 32 16.0099ZM16.3 2.90991C9 2.90991 3.1 8.80991 3.1 16.0099C3.1 18.9099 4 21.5099 5.6 23.7099L4 28.6099L9 26.9099C11.1 28.3099 13.6 29.1099 16.3 29.1099C23.6 29.1099 29.5 23.2099 29.5 16.0099C29.5 8.80991 23.6 2.90991 16.3 2.90991ZM24.2 19.6099C24.1 19.4099 23.8 19.3099 23.5 19.2099C23.1 19.0099 21.2 18.1099 20.9 18.0099C20.5 17.9099 20.3 17.8099 20 18.2099C19.7 18.6099 19 19.4099 18.8 19.7099C18.6 20.0099 18.4 20.0099 18 19.8099C17.6 19.6099 16.4 19.2099 14.9 17.9099C13.8 16.9099 13 15.6099 12.8 15.3099C12.6 14.9099 12.8 14.7099 13 14.5099C13.2 14.3099 13.4 14.1099 13.6 13.8099C13.8 13.6099 13.9 13.4099 14 13.2099C14.1 12.9099 14.1 12.7099 14 12.5099C13.9 12.3099 13.1 10.4099 12.8 9.70991C12.5 8.90991 12.2 9.10991 11.9 9.10991C11.7 9.10991 11.4 9.10991 11.2 9.10991C11 9.10991 10.3 9.00991 10 9.40991C9.6 9.80991 8.7 10.7099 8.7 12.6099C8.7 14.5099 10.1 16.3099 10.3 16.6099C10.5 16.9099 13 20.8099 16.9 22.4099C20.8 23.9099 20.8 23.4099 21.5 23.4099C22.2 23.3099 23.8 22.5099 24.1 21.6099C24.3 20.5099 24.3 19.7099 24.2 19.6099Z" fill="#AEAEAE"/>
</svg>
